<svg width="64" height="64" viewBox="0 0 64 64" fill="none" xmlns="http://www.w3.org/2000/svg">
<path d="M8 60C8 62.2107 6.208 64 4 64C1.79467 64 0 62.2107 0 60C0 57.7893 1.79467 56 4 56C6.208 56 8 57.7893 8 60ZM44.4507 10.0027L42.792 7.02133C40.8373 8.29067 39.1707 9.86133 37.7787 11.7387L40.792 13.4213C41.8347 12.0853 43.0507 10.9467 44.4507 10.0027ZM11.192 57.5333C11.4213 58.2427 11.5467 58.9973 11.5467 59.7787C11.5467 60.1707 11.5147 60.5573 11.456 60.9333C13.616 60.6373 15.6107 60.184 17.4373 59.5733L16.424 56.3333C14.8373 56.8693 13.0987 57.2693 11.192 57.5333ZM26.832 37.616L41.68 27.352L30.6027 39.0453L42.1467 49.3253L50.6667 18.0827L16.584 35.1253L26.832 37.616ZM52.4907 3.48C50.0213 3.88533 47.7947 4.52533 45.8027 5.40267L47.4613 8.384C49.0907 7.696 50.9147 7.18667 52.9467 6.85333C52.6293 6.03467 52.4533 5.14667 52.4533 4.21867L52.4907 3.48ZM59.9973 0C57.792 0 56 1.78933 56 4C56 6.21067 57.792 8 59.9973 8C62.2053 8 64 6.21067 64 4C64 1.78933 62.2053 0 59.9973 0V0ZM24 51.5707C22.7227 52.9147 21.288 54.08 19.584 54.9867L20.6133 58.2747C21.84 57.6693 22.952 56.952 24.0027 56.1653V51.5707H24ZM29.3653 52.7493L33.992 45.8747L29.3653 41.7547V52.7493ZM38.944 16.304L35.9627 14.6373C34.984 16.496 34.2507 18.5067 33.64 20.5867L37.984 18.456C38.28 17.7227 38.584 16.9893 38.944 16.304Z" fill="#3B2D7E"/>
</svg>
