<svg width="211" height="71" viewBox="0 0 211 71" fill="none" xmlns="http://www.w3.org/2000/svg">
<path d="M8 60C8 62.2107 6.208 64 4 64C1.79467 64 0 62.2107 0 60C0 57.7893 1.79467 56 4 56C6.208 56 8 57.7893 8 60ZM44.4507 10.0027L42.792 7.02133C40.8373 8.29067 39.1707 9.86133 37.7787 11.7387L40.792 13.4213C41.8347 12.0853 43.0507 10.9467 44.4507 10.0027ZM11.192 57.5333C11.4213 58.2427 11.5467 58.9973 11.5467 59.7787C11.5467 60.1707 11.5147 60.5573 11.456 60.9333C13.616 60.6373 15.6107 60.184 17.4373 59.5733L16.424 56.3333C14.8373 56.8693 13.0987 57.2693 11.192 57.5333V57.5333ZM26.832 37.616L41.68 27.352L30.6027 39.0453L42.1467 49.3253L50.6667 18.0827L16.584 35.1253L26.832 37.616V37.616ZM52.4907 3.48C50.0213 3.88533 47.7947 4.52533 45.8027 5.40267L47.4613 8.384C49.0907 7.696 50.9147 7.18667 52.9467 6.85333C52.6293 6.03467 52.4533 5.14667 52.4533 4.21867L52.4907 3.48V3.48ZM59.9973 0C57.792 0 56 1.78933 56 4C56 6.21067 57.792 8 59.9973 8C62.2053 8 64 6.21067 64 4C64 1.78933 62.2053 0 59.9973 0V0ZM24 51.5707C22.7227 52.9147 21.288 54.08 19.584 54.9867L20.6133 58.2747C21.84 57.6693 22.952 56.952 24.0027 56.1653V51.5707H24ZM29.3653 52.7493L33.992 45.8747L29.3653 41.7547V52.7493ZM38.944 16.304L35.9627 14.6373C34.984 16.496 34.2507 18.5067 33.64 20.5867L37.984 18.456C38.28 17.7227 38.584 16.9893 38.944 16.304V16.304Z" fill="#3B2D7E"/>
<path d="M75.445 53.28C72.3417 53.28 69.8567 52.6967 67.99 51.53C66.1233 50.34 65.19 48.5317 65.19 46.105C65.19 44.8217 65.4117 43.8417 65.855 43.165C66.2983 42.4883 66.9517 42.15 67.815 42.15C68.445 42.15 68.9583 42.3133 69.355 42.64C69.7517 42.9667 69.95 43.3867 69.95 43.9C69.95 44.3667 69.915 44.775 69.845 45.125C69.845 45.2183 69.8217 45.3817 69.775 45.615C69.7517 45.8483 69.74 46.0933 69.74 46.35C69.74 47.4 70.265 48.1817 71.315 48.695C72.3883 49.2083 73.8817 49.465 75.795 49.465C77.7783 49.465 79.33 49.115 80.45 48.415C81.57 47.6917 82.13 46.6883 82.13 45.405C82.13 44.6117 81.8733 43.935 81.36 43.375C80.8467 42.7917 80.205 42.3133 79.435 41.94C78.665 41.5433 77.58 41.065 76.18 40.505C74.3833 39.805 72.9133 39.14 71.77 38.51C70.65 37.88 69.6817 37.0283 68.865 35.955C68.0717 34.8583 67.675 33.505 67.675 31.895C67.675 30.215 68.1183 28.7217 69.005 27.415C69.915 26.1083 71.21 25.0933 72.89 24.37C74.5933 23.6467 76.5883 23.285 78.875 23.285C80.5783 23.285 82.1417 23.5417 83.565 24.055C84.9883 24.545 86.12 25.3033 86.96 26.33C87.8233 27.3567 88.255 28.6167 88.255 30.11C88.255 31.58 88.0333 32.6883 87.59 33.435C87.1467 34.1817 86.4933 34.555 85.63 34.555C85.0233 34.555 84.51 34.3683 84.09 33.995C83.6933 33.6217 83.495 33.1783 83.495 32.665C83.495 32.2217 83.53 31.8133 83.6 31.44C83.67 30.74 83.705 30.2967 83.705 30.11C83.705 29.13 83.2267 28.3833 82.27 27.87C81.3133 27.3567 80.1233 27.1 78.7 27.1C76.6933 27.1 75.1533 27.4733 74.08 28.22C73.03 28.9433 72.505 29.97 72.505 31.3C72.505 32.1867 72.7733 32.945 73.31 33.575C73.87 34.205 74.5583 34.73 75.375 35.15C76.1917 35.57 77.335 36.0717 78.805 36.655C80.5783 37.3783 82.0017 38.0317 83.075 38.615C84.1483 39.1983 85.0583 39.9917 85.805 40.995C86.575 41.9983 86.96 43.235 86.96 44.705C86.96 47.4583 85.91 49.5817 83.81 51.075C81.7333 52.545 78.945 53.28 75.445 53.28ZM107.798 42.255C108.101 42.255 108.334 42.4067 108.498 42.71C108.661 43.0133 108.743 43.3983 108.743 43.865C108.743 44.985 108.404 45.65 107.728 45.86C106.328 46.35 104.788 46.63 103.108 46.7C102.664 48.66 101.789 50.235 100.483 51.425C99.1759 52.5917 97.6942 53.175 96.0376 53.175C94.6376 53.175 93.4359 52.8367 92.4326 52.16C91.4526 51.4833 90.7059 50.585 90.1926 49.465C89.6792 48.345 89.4226 47.1317 89.4226 45.825C89.4226 44.0517 89.7609 42.4767 90.4376 41.1C91.1142 39.7 92.0476 38.615 93.2376 37.845C94.4276 37.0517 95.7459 36.655 97.1926 36.655C98.9659 36.655 100.389 37.2733 101.463 38.51C102.559 39.7233 103.201 41.2283 103.388 43.025C104.484 42.955 105.791 42.7217 107.308 42.325C107.494 42.2783 107.658 42.255 107.798 42.255ZM96.3176 49.465C97.0642 49.465 97.7059 49.1617 98.2426 48.555C98.8026 47.9483 99.1759 47.0733 99.3626 45.93C98.6392 45.44 98.0792 44.7983 97.6826 44.005C97.3092 43.2117 97.1226 42.3717 97.1226 41.485C97.1226 41.1117 97.1576 40.7383 97.2276 40.365H97.0526C96.1192 40.365 95.3376 40.82 94.7076 41.73C94.1009 42.6167 93.7976 43.8767 93.7976 45.51C93.7976 46.7933 94.0426 47.7733 94.5326 48.45C95.0459 49.1267 95.6409 49.465 96.3176 49.465ZM112.424 53.175C110.137 53.175 108.352 52.5333 107.069 51.25C105.809 49.9433 105.179 48.2283 105.179 46.105C105.179 44.215 105.552 42.5583 106.299 41.135C107.045 39.7117 108.014 38.615 109.204 37.845C110.394 37.075 111.642 36.69 112.949 36.69C114.232 36.69 115.224 37.075 115.924 37.845C116.647 38.5917 117.009 39.56 117.009 40.75C117.009 41.73 116.787 42.5583 116.344 43.235C115.924 43.9117 115.364 44.25 114.664 44.25C114.22 44.25 113.859 44.145 113.579 43.935C113.322 43.725 113.194 43.4333 113.194 43.06C113.194 42.8967 113.217 42.71 113.264 42.5C113.31 42.29 113.345 42.1383 113.369 42.045C113.485 41.695 113.544 41.3683 113.544 41.065C113.544 40.7617 113.462 40.5283 113.299 40.365C113.159 40.2017 112.949 40.12 112.669 40.12C112.132 40.12 111.63 40.365 111.164 40.855C110.697 41.3217 110.324 41.9633 110.044 42.78C109.764 43.5967 109.624 44.495 109.624 45.475C109.624 48.1817 110.802 49.535 113.159 49.535C114.115 49.535 115.142 49.22 116.239 48.59C117.359 47.9367 118.455 46.9683 119.529 45.685C119.809 45.3583 120.124 45.195 120.474 45.195C120.777 45.195 121.01 45.335 121.174 45.615C121.36 45.895 121.454 46.28 121.454 46.77C121.454 47.6567 121.232 48.38 120.789 48.94C119.692 50.2933 118.374 51.3433 116.834 52.09C115.317 52.8133 113.847 53.175 112.424 53.175ZM123.209 34.38C122.229 34.38 121.494 34.1583 121.004 33.715C120.514 33.2483 120.269 32.6067 120.269 31.79C120.269 30.9733 120.584 30.2967 121.214 29.76C121.868 29.2 122.673 28.92 123.629 28.92C124.493 28.92 125.193 29.13 125.729 29.55C126.266 29.97 126.534 30.565 126.534 31.335C126.534 32.2683 126.231 33.015 125.624 33.575C125.018 34.1117 124.213 34.38 123.209 34.38ZM122.929 53.175C121.413 53.175 120.304 52.6383 119.604 51.565C118.928 50.4917 118.589 49.0683 118.589 47.295C118.589 46.245 118.718 44.9033 118.974 43.27C119.254 41.6133 119.604 40.0733 120.024 38.65C120.234 37.9033 120.514 37.39 120.864 37.11C121.214 36.83 121.774 36.69 122.544 36.69C123.734 36.69 124.329 37.0867 124.329 37.88C124.329 38.4633 124.108 39.8167 123.664 41.94C123.104 44.5067 122.824 46.245 122.824 47.155C122.824 47.855 122.918 48.3917 123.104 48.765C123.291 49.1383 123.606 49.325 124.049 49.325C124.469 49.325 124.994 49.0333 125.624 48.45C126.254 47.8667 127.094 46.945 128.144 45.685C128.424 45.3583 128.739 45.195 129.089 45.195C129.393 45.195 129.626 45.335 129.789 45.615C129.976 45.895 130.069 46.28 130.069 46.77C130.069 47.7033 129.848 48.4267 129.404 48.94C127.094 51.7633 124.936 53.175 122.929 53.175ZM131.543 53.175C130.096 53.175 128.941 52.65 128.078 51.6C127.214 50.55 126.783 49.1733 126.783 47.47C126.783 45.6033 127.214 43.8417 128.078 42.185C128.941 40.505 130.084 39.1633 131.508 38.16C132.954 37.1333 134.483 36.62 136.093 36.62C136.606 36.62 136.944 36.725 137.108 36.935C137.294 37.1217 137.446 37.4717 137.563 37.985C138.053 37.8917 138.566 37.845 139.103 37.845C140.246 37.845 140.818 38.2533 140.818 39.07C140.818 39.56 140.643 40.7267 140.293 42.57C139.756 45.2533 139.488 47.12 139.488 48.17C139.488 48.52 139.569 48.8 139.733 49.01C139.919 49.22 140.153 49.325 140.433 49.325C140.876 49.325 141.413 49.045 142.043 48.485C142.673 47.9017 143.524 46.9683 144.598 45.685C144.878 45.3583 145.193 45.195 145.543 45.195C145.846 45.195 146.079 45.335 146.243 45.615C146.429 45.895 146.523 46.28 146.523 46.77C146.523 47.7033 146.301 48.4267 145.858 48.94C144.901 50.13 143.886 51.1333 142.813 51.95C141.739 52.7667 140.701 53.175 139.698 53.175C138.928 53.175 138.216 52.9183 137.563 52.405C136.933 51.8683 136.454 51.145 136.128 50.235C134.914 52.195 133.386 53.175 131.543 53.175ZM132.803 49.64C133.316 49.64 133.806 49.3367 134.273 48.73C134.739 48.1233 135.078 47.3183 135.288 46.315L136.583 39.875C135.603 39.8983 134.693 40.2717 133.853 40.995C133.036 41.695 132.383 42.6283 131.893 43.795C131.403 44.9617 131.158 46.1983 131.158 47.505C131.158 48.2283 131.298 48.765 131.578 49.115C131.881 49.465 132.289 49.64 132.803 49.64ZM156.943 45.195C157.246 45.195 157.48 45.335 157.643 45.615C157.83 45.895 157.923 46.28 157.923 46.77C157.923 47.7033 157.701 48.4267 157.258 48.94C156.255 50.1767 155.158 51.1917 153.968 51.985C152.801 52.7783 151.471 53.175 149.978 53.175C147.925 53.175 146.396 52.2417 145.393 50.375C144.413 48.5083 143.923 46.0933 143.923 43.13C143.923 40.2833 144.285 37.04 145.008 33.4C145.755 29.76 146.84 26.6333 148.263 24.02C149.71 21.4067 151.425 20.1 153.408 20.1C154.528 20.1 155.403 20.625 156.033 21.675C156.686 22.7017 157.013 24.1833 157.013 26.12C157.013 28.8967 156.243 32.1167 154.703 35.78C153.163 39.4433 151.075 43.0717 148.438 46.665C148.601 47.6217 148.87 48.31 149.243 48.73C149.616 49.1267 150.106 49.325 150.713 49.325C151.67 49.325 152.51 49.0567 153.233 48.52C153.956 47.96 154.878 47.015 155.998 45.685C156.278 45.3583 156.593 45.195 156.943 45.195ZM152.638 23.565C152.101 23.565 151.495 24.5333 150.818 26.47C150.141 28.4067 149.546 30.81 149.033 33.68C148.52 36.55 148.24 39.3033 148.193 41.94C149.85 39.21 151.168 36.48 152.148 33.75C153.128 30.9967 153.618 28.4883 153.618 26.225C153.618 24.4517 153.291 23.565 152.638 23.565ZM184.459 23.985C185.112 24.0783 185.556 24.2767 185.789 24.58C186.046 24.8833 186.174 25.28 186.174 25.77C186.174 27.38 185.311 28.1267 183.584 28.01L182.359 27.905C180.982 27.7883 179.606 27.695 178.229 27.625C176.876 27.555 175.452 27.52 173.959 27.52H172.384C172.104 30.9733 171.812 34.1233 171.509 36.97L177.529 36.865C178.392 36.865 178.964 37.0167 179.244 37.32C179.547 37.6233 179.699 38.0317 179.699 38.545C179.699 39.3383 179.466 39.9683 178.999 40.435C178.532 40.8783 177.867 41.1 177.004 41.1H171.019L170.809 42.605C170.319 46.455 169.269 49.1967 167.659 50.83C166.072 52.4633 163.879 53.28 161.079 53.28C159.492 53.28 158.034 52.9417 156.704 52.265C155.374 51.565 154.394 50.725 153.764 49.745C153.507 49.3483 153.379 48.87 153.379 48.31C153.379 47.75 153.507 47.26 153.764 46.84C154.044 46.42 154.382 46.21 154.779 46.21C155.059 46.21 155.327 46.3033 155.584 46.49C155.864 46.6767 156.214 47.0383 156.634 47.575C157.754 49.045 159.142 49.78 160.799 49.78C162.129 49.78 163.237 49.2433 164.124 48.17C165.034 47.0733 165.617 45.3583 165.874 43.025L166.084 41.1H164.404C163.867 41.1 163.401 40.9483 163.004 40.645C162.631 40.3417 162.444 39.91 162.444 39.35C162.444 38.6267 162.631 38.0783 163.004 37.705C163.377 37.3083 163.926 37.11 164.649 37.11C165.302 37.11 165.944 37.0983 166.574 37.075C166.854 34.5083 167.157 31.3933 167.484 27.73C164.964 27.9633 163.191 28.3717 162.164 28.955C161.137 29.5383 160.624 30.4017 160.624 31.545C160.624 32.3383 160.857 33.0967 161.324 33.82C161.464 34.03 161.534 34.24 161.534 34.45C161.534 34.87 161.301 35.2433 160.834 35.57C160.367 35.8733 159.842 36.025 159.259 36.025C158.629 36.025 158.092 35.8383 157.649 35.465C157.369 35.2317 157.101 34.7533 156.844 34.03C156.587 33.3067 156.459 32.5017 156.459 31.615C156.459 28.7217 157.941 26.6217 160.904 25.315C163.891 24.0083 168.242 23.355 173.959 23.355C177.926 23.355 181.426 23.565 184.459 23.985ZM193.276 45.195C193.579 45.195 193.813 45.335 193.976 45.615C194.163 45.895 194.256 46.28 194.256 46.77C194.256 47.7033 194.034 48.4267 193.591 48.94C192.588 50.1767 191.491 51.1917 190.301 51.985C189.134 52.7783 187.804 53.175 186.311 53.175C184.258 53.175 182.729 52.2417 181.726 50.375C180.746 48.5083 180.256 46.0933 180.256 43.13C180.256 40.2833 180.618 37.04 181.341 33.4C182.088 29.76 183.173 26.6333 184.596 24.02C186.043 21.4067 187.758 20.1 189.741 20.1C190.861 20.1 191.736 20.625 192.366 21.675C193.019 22.7017 193.346 24.1833 193.346 26.12C193.346 28.8967 192.576 32.1167 191.036 35.78C189.496 39.4433 187.408 43.0717 184.771 46.665C184.934 47.6217 185.203 48.31 185.576 48.73C185.949 49.1267 186.439 49.325 187.046 49.325C188.003 49.325 188.843 49.0567 189.566 48.52C190.289 47.96 191.211 47.015 192.331 45.685C192.611 45.3583 192.926 45.195 193.276 45.195ZM188.971 23.565C188.434 23.565 187.828 24.5333 187.151 26.47C186.474 28.4067 185.879 30.81 185.366 33.68C184.853 36.55 184.573 39.3033 184.526 41.94C186.183 39.21 187.501 36.48 188.481 33.75C189.461 30.9967 189.951 28.4883 189.951 26.225C189.951 24.4517 189.624 23.565 188.971 23.565ZM203.677 36.69C204.214 36.69 204.587 36.76 204.797 36.9C205.007 37.04 205.112 37.2733 205.112 37.6C205.112 38.16 204.809 40.155 204.202 43.585C203.665 46.875 203.35 48.8233 203.257 49.43C202.394 55.4267 201.204 60.175 199.687 63.675C198.17 67.175 196.152 68.925 193.632 68.925C192.442 68.925 191.474 68.5517 190.727 67.805C189.98 67.0817 189.607 66.125 189.607 64.935C189.607 63.8383 189.852 62.7183 190.342 61.575C190.855 60.4317 191.789 59.1133 193.142 57.62C194.519 56.15 196.455 54.4583 198.952 52.545L199.057 51.74C199.22 50.8767 199.407 49.64 199.617 48.03C199.15 49.71 198.497 50.9933 197.657 51.88C196.817 52.7433 195.93 53.175 194.997 53.175C193.947 53.175 193.084 52.6967 192.407 51.74C191.754 50.76 191.427 49.5467 191.427 48.1C191.427 46.35 191.544 44.7517 191.777 43.305C192.01 41.835 192.395 40.2833 192.932 38.65C193.165 37.95 193.492 37.4483 193.912 37.145C194.332 36.8417 194.997 36.69 195.907 36.69C196.42 36.69 196.77 36.7717 196.957 36.935C197.167 37.0983 197.272 37.3433 197.272 37.67C197.272 37.8567 197.144 38.4867 196.887 39.56C196.654 40.4233 196.467 41.205 196.327 41.905C196.14 42.8617 195.977 43.7833 195.837 44.67C195.697 45.5333 195.627 46.245 195.627 46.805C195.627 47.6917 195.872 48.135 196.362 48.135C196.712 48.135 197.144 47.785 197.657 47.085C198.194 46.385 198.754 45.3233 199.337 43.9C199.944 42.4767 200.527 40.7267 201.087 38.65C201.274 37.95 201.554 37.4483 201.927 37.145C202.324 36.8417 202.907 36.69 203.677 36.69ZM194.017 65.53C194.6 65.53 195.254 64.8533 195.977 63.5C196.7 62.1467 197.424 59.895 198.147 56.745C196.35 58.2617 195.044 59.6383 194.227 60.875C193.434 62.135 193.037 63.2317 193.037 64.165C193.037 64.5617 193.107 64.8883 193.247 65.145C193.41 65.4017 193.667 65.53 194.017 65.53Z" fill="#FF0066"/>
</svg>
